<svg xmlns="http://www.w3.org/2000/svg" viewBox="0 0 2473.39 1519"><defs><style>.cls-1{font-size:372px;fill:#1d1d1b;font-family:AmericanTypewriter, American Typewriter;}.cls-2{letter-spacing:-0.04em;}.cls-3{letter-spacing:0.02em;}.cls-4{fill:#ffed00;}</style></defs><g id="Calque_2" data-name="Calque 2"><g id="Calque_1-2" data-name="Calque 1"><text class="cls-1" transform="translate(935.93 490.42)">H<tspan class="cls-2" x="291.27" y="0">a</tspan><tspan x="487.69" y="0">vard</tspan><tspan x="0" y="446.4">A</tspan><tspan class="cls-3" x="277.51" y="446.4">r</tspan><tspan x="467.23" y="446.4">t</tspan><tspan x="0" y="892.8">Museum</tspan></text><path class="cls-4" d="M217.44,835.28A59.13,59.13,0,0,1,224.9,851c1.58,4.73,2.75,9.53,1.13,15.17s1.24,11.68,5.1,16.54c.83,1,2.09,1.91,2,3.33-.69,7,2.76,13.41,3,20.4.11,3.08-.78,6.42.39,9.55a1.86,1.86,0,0,1-1.39,2.34c-6.08,1.87-11.17,6.45-18,6.34-3.15-.06-5.45-2.23-8.36-3-3.59-.9-6.5-3.86-10.51-3.69-.84,0-1.12-.51-1.25-1.2-1.6-8.41-9.28-12.31-13.7-18.61-3.43-4.9-7.44-9.35-10.64-14.5-2.21-3.56-4.5-7.24-7-10.71-4.36-6-9.33-11.71-11.5-19.16-.6-2.06-3.36-3-4.69-5-5.8-8.86-11.67-17.68-17.77-26.34-6.53-9.27-14.31-17.82-19.71-27.69a193.28,193.28,0,0,0-13.25-20.38C93.43,767.12,88.39,759.5,83,752.22c-5.56-7.49-11.36-15-14.4-24.13-1-3-4.71-3.91-6.27-6.82-3.74-7-7.79-13.79-11.72-20.67-2.44-4.27-5.76-8.27-7.16-12.85-2.5-8.11-10.16-13.59-10.83-22.46a4,4,0,0,0-1.37-2.44c-2.81-3-6.13-5.71-6.27-10.36a3.45,3.45,0,0,0-2.49-2.86c-4.69-1.33-5-5.56-6.68-9-2.18-4.48-4-9.17-7.44-13-.43-.48-1-1.38-1.33-1.32-5.08.74-5.73-1-3.81-5.48.58-1.35-.2-3.9-1.39-6-2.12-3.64-2.63-8-.28-11.78,3.15-5,11.88-6,17.48-2.28,2.79,1.88,5.88,3.31,6.28,7.59.25,2.72,3,4.25,5.66,4.95,6.67,1.77,12.34,5,16.35,10.73,1.36,2,3.55,2.14,7.4,2.16C50,628.8,48.11,631,50.33,635c.37.66-2,2.44-1.65,4.95.8,5.53,4.76,9.2,7.06,13.78,3.34,6.64,8.2,12.44,12.74,18.39,3.7,4.84,7.27,9.66,11.68,14,4.09,4,6.83,9.43,10.17,14.23a26.73,26.73,0,0,0,2.26,3.27c10.33,11.09,18.51,23.88,28.13,35.46,4.76,5.73,8.9,12.25,14.9,17.21,3,2.53,5.28,6.58,8,9.89,8,9.86,15.88,19.78,23.86,29.64a14.92,14.92,0,0,0,3.18,3.12,4.43,4.43,0,0,0,4.71-.3c1.32-.8.8-2.68.21-3.64-2.25-3.66,0-9.21-5-11.67,1.66-4.34-1.95-7.7-2.17-11.7,0-.65.26-1.58-.07-1.93-5-5.22-3.87-12.83-7.35-18.58-1.28-2.11-.07-4.21-.61-6.29a137.41,137.41,0,0,1-3.66-17.87c-1.14-9.14-4-18.51.45-27.24,1.93-3.84,5.06-7.43,4.54-11.66-.55-4.4.27-8.54.36-12.8.06-3,1-4.71,4.45-4.35,2.3.25,4.66-.12,7,0,5,.22,8.87,2,10.09,7.41,1,4.22,2.9,6.76,7.94,5.34,3.38-1,4.39,3.08,7.13,4.23,7.87,3.32,12.71,11.41,21.47,14,2.52.75,5.22,3.82,7.52,5.85,5.76,5.11,12.74,7.64,19.17,11.3,1.22.69,2.9,1.6,4,0s.86-2.85-.46-4.76c-2.11-3-3.17-6.85-4.54-10.39-2.57-6.62-6.23-13.1-7.2-20-.82-5.73-3.71-9.5-6.69-13.66-1.66-2.32-2.22-5.42-2.5-7.68-1.19-9.87-7.46-17.91-9.05-27.53-.32-2-1.11-3.84-3.18-4.8a2,2,0,0,1-1.09-1.4c.54-13.5-6.82-24.73-10.84-36.88-1.25-3.77-.86-7.66-2.59-11.36-7-14.92-8.24-31.48-13-47.1-4.23-14-5.11-28.89-7.78-43.33-1.58-8.55-1.2-17.18-2.23-25.73-.44-3.59-2.27-6.87-1.67-10.7,1.25-7.9,4.9-10.11,13-8.51,3.93.78,8.38-.39,10.43,4.44,1,2.29,2.51,4.69,2.42,7-.15,4.27,1.3,8.32,1.69,12.45.59,6.36.58,13.09,2.87,19.27,1.39,3.73,2.88,3.81,5.29.46a21.13,21.13,0,0,1,10.16-7.36c5-1.86,12.92,2.84,14.34,8.13A2.12,2.12,0,0,1,238,491c-5.06,9.48-3.18,19.1-1.5,29.08,1.31,7.72,2.7,15.47,4,23.21,1.71,10.28,3.38,20.6,7,30.53,1.23,3.36,2.57,7.09,2.26,11s3.27,6.16,3.93,9.71c1.46,7.94,4.4,15.43,7.24,22.94,1.73,4.57,2.75,9.38,5.22,13.7a20.59,20.59,0,0,1,2.27,7.6c.76,6.74,3.81,12.45,7.08,17.92,3.64,6.07,4.51,13,7.07,19.35,3.63,9,7.26,18,11.23,26.93,3.07,6.89,5.89,14,9.51,20.53,3.86,7,6.22,14.62,10.44,21.57,3.4,5.58,6.68,11.57,9.66,17.56,1.63,3.28,3.27,6.82,3.7,10.38.65,5.46-4.6,10.27-11.11,11.13-.33,0-.71-.08-1,0-8.9,3.67-15.34-1.56-21.29-6.6-4.16-3.52-8.78-3.2-13-2.73-7.72.88-14-.45-19.38-6.36-1.7-1.85-5.4-1.72-7.57-3.32-5-3.69-10.56-6.46-15.22-11.07-3.9-3.87-9-7.14-13.14-11.12-3.45-3.26-6.93-6.5-10.16-10-6.5-7-14.36-12.21-22.21-17.42-1.86-1.23-4.88,2.95-4.22,6.19,2,9.71,4,19.43,6.28,29.09,2.59,11,5,22.08,7.88,32.93,1.82,6.77,4.23,13.67,5.66,20.49,1.83,8.73,7.53,16.2,7.48,25.38,0,1.91,2.64,2.61,2.4,4.72Zm-12.36,47.56c-2.64-7.35-3.37-15.63-9.89-21.71-5.23-4.87-9.9-10.34-14.69-15.66a57.2,57.2,0,0,1-7-8.88c-2.41-4.1-5.51-7.62-8.25-11.43-1.5-2.08-3.85-3.64-5.83-1.72-1.75,1.69.23,4.09,1.6,5.51,8.68,9,13,20.9,20.35,30.85,6.13,8.27,11.7,17,18.19,25,1.09,1.35,2.16,3,3.84,2.67C205.64,887,203.82,884.57,205.08,882.84Zm-54.69-75.43c-1.36-.08-2.73.43-1.89,1.88,1.63,2.82,3.32,5.78,6.29,7.47,1,.57,2.45.57,2.67-1.11C157.76,813.43,152.63,807.56,150.39,807.41Z"/><path class="cls-4" d="M589.42,104.37c-.49,1.46-.53,2.5-.92,2.65-4.89,1.91-5.44,7.18-8.34,10.59-2.46,2.89-5.41,3.42-9.28,3.38-4.91,0-9.24.11-12.44-4.42-2.07-2.92-2.35-5.33-.1-8.39,3.62-4.93,6.67-10.27,10.21-15.27,5.17-7.27,8.19-16,15.54-21.83,2.68-2.12,3.35-5.87,5.76-8.52,3.6-4,8.73-5.35,12.67-8.83A89.15,89.15,0,0,1,622.32,41c7.86-3.83,16.43-6.8,24.59-10.12,8.75-3.57,18.43-4.69,26.43-11.44A65.75,65.75,0,0,1,702.56,5.14c5.59-1.13,11.17-2.5,16.68-3.86,8.58-2.13,17.16-1.36,25,.55A74.3,74.3,0,0,1,772,14.57c11.24,8.52,17.67,20.26,23.66,32.44,2.06,4.2,4.8,8.41,5.48,12.88,1.4,9.17,5.93,17.41,6.78,26.79.51,5.62,2.29,11.27,3.09,17,1.79,12.73,3.44,25.46,2.48,38.41a57.2,57.2,0,0,0,.83,15.1c.15.8.59,1.86.25,2.37-2.94,4.48.34,8.92-.08,13.28-.75,7.67,1,15.32-1.15,23.12-1.83,6.49-1.87,13.62-1.78,20.45.09,6.52-1.48,12.76-2.19,19.12a60.07,60.07,0,0,0-.64,10.61c.55,7.11-1.88,13.66-2.14,20.57-.45,12.19-2.45,24.3-2.67,36.56-.27,15.47-1,30.94-1.32,46.41-.13,6.75-1.51,13.33-2.14,20-.33,3.45-3.44,5-5.2,7.45-7.65,10.66-18.55,10.7-29.7,8-5.07-1.22-6.38-6.9-8.48-11-3.19-6.15-5.91-12.56-5.65-19.93.18-5.48-3.78-8.94-9.06-9.55-3.74-.43-5.9-1.75-6.09-6.5-.44-10.69,1.56-21,3.23-31.41.74-4.6,5.15-4.22,8-3.5,3.24.82,4.49-.61,6-2.58A22.48,22.48,0,0,0,758,287.81a4.78,4.78,0,0,1,.35-2.38c6.28-8.74,6.11-19.24,8.58-29.06a95.75,95.75,0,0,1,4.37-12.61c3.34-8.11,3-16.83,5.39-25.06,3.86-13,4.51-26.71,7.47-39.95.62-2.8-.71-6-.24-8.89,1.84-11.3,0-22.62.48-33.82.68-15.53-2.24-30.57-4.11-45.64-1.19-9.53-3.14-19.59-8.13-28.71-2.84-5.21-4-11.32-8-16.2C758.45,38.63,752,33,743.27,30.71a40.75,40.75,0,0,0-15.2-.75c-8.79,1-17.48,3.18-26.28,3.75-6.19.4-11.61,2.89-17.45,4.12-2.46.51-3,3-4.34,4.57a160.52,160.52,0,0,1-13.27,15.11c-7.51,7.16-12.18,16-17.77,24.2-6.64,9.78-10.83,20.69-10.47,32.84a11.51,11.51,0,0,0,1.22,4.78c4.87,9.36,7.54,19.69,12.75,28.91,2.78,4.91,5.74,9.81,7.71,15.06,1.69,4.52,4.93,8.27,5.88,13.12.45,2.35,3.5,3.26,4.31,5.3,4.11,10.39,13.68,16.82,18.9,26.56,2.47,4.61,7.12,8.79,12,11.82,10,6.14,18.81,13.64,25.72,23.27,2.49,3.47,6.66,5.21,9.7,8.25,1.79,1.79,2.31,2.48.74,4.7-4.6,6.49-12.35,9.38-20.54,7.54-6.68-1.49-12-5.91-18.37-8.07a36.5,36.5,0,0,1-17.07-12.11,19.17,19.17,0,0,0-7.42-5.62c-4.05-1.73-4.94-6.25-7.28-9.42-5.36-7.27-12.09-13.23-17.74-20.18-6.46-8-14.59-14.18-21.69-21.42-5.73-5.86-10.87-12.73-11.54-21.64-.2-2.63-2.86-3.9-3.72-6.35-2.17-6.19-3.18-12.64-4.88-18.9-1.55-5.68-4.74-10.92-7.38-16.28-2-4-4.74-7.58-6.1-11.7C592.82,109.38,591.26,107.35,589.42,104.37ZM775.92,317c-4.29,4.19-6.26,9-8.24,14.06-1.44,3.67-2.57,7.81-6.52,10.3-1.69,1.07-2.65,3.83.49,5.35s5.51,2.56,5.49,7.06c0,3.95,4.51,2.16,6.91,2.45s1.47-2.69,1.11-3.45c-1.3-2.73.48-4.94.66-7.37A229.5,229.5,0,0,0,775.92,317ZM632.27,63.13c-.08-1.41-.32-2.47-2.07-1.75s-3.91,1-5.34,2.12c-5.09,4.08-10.12,8.26-14.83,12.77-2,1.91-1.71,4.2,1.66,4.93a5.37,5.37,0,0,1,2.7,1c2.5,2.68,4.56,1.45,6.13-.78,2.59-3.67,5-7.5,7.22-11.38C629.14,67.65,631.7,66,632.27,63.13Z"/><path class="cls-4" d="M524.5,558.7c-7.4,1.28-9.89-5.06-13.28-9.67-6.06-8.25-9.81-17.87-15-26.67-5.85-9.94-12.53-19.64-15.8-30.94-.73-2.51-3.14-3.36-4.47-5.48-5.38-8.61-7.75-18.61-12.94-27.17-7.14-11.8-12.12-24.64-18.62-36.7-5.25-9.75-8.93-20.27-14.42-29.77-4.33-7.49-9.2-14.82-12.84-22.59-5.94-12.7-14.08-24-21.18-35.95-5.94-10-12.42-19.84-21.72-27.4a9.49,9.49,0,0,1-3.28-9.89c1.05-3.82,6.07-6.43,10.27-6,1.32.12,2.72.54,3.95.25,6.93-1.69,10.52,3.15,14.36,7.31,5.78,6.26,9.68,13.94,14.8,20.58,5.35,6.95,9.62,14.49,14.29,21.77,4.95,7.73,8.33,16.45,12.62,24.63,2.88,5.5,6.65,10.58,9.11,16.25,3.07,7.06,7.55,13.31,10.68,20.33,3,6.66,6.75,12.95,10.07,19.45,3.6,7.05,7.62,14,10.36,21.32,1.16,3.1,3.13,5.64,4.49,8.47,4.87,10.14,9.83,20.23,14.54,30.46,2.7,5.87,7.82,10.52,9.83,16.73,2.19,6.76,6.57,12.07,10.3,17.83.75,1.16.91,3.3,3,2.57,1.54-.54,3.19-1.77,3.46-3.35.9-5.14,1.52-9.52-1.67-15.18-5.11-9-12.53-16.95-15.13-27.44-.65-2.62-3.52-4-4.83-6.59-6-11.93-13.2-23.3-18.49-35.51-1.87-4.33-3.91-8.76-6.69-12-5.59-6.53-7.59-14.61-11.61-21.75s-8.77-14.3-12-21.94c-7.17-16.83-16.92-32.41-23.56-49.5-2.54-6.54-6.74-12.42-9.83-18.77-4.73-9.7-9.33-19.48-13.58-29.41-1.12-2.59-3.58-4.24-4.12-7.09-.14-.75-1.21-1.42-1.17-2.09.38-6.39-3.89-10.71-6.68-15.72-1.88-3.39-1.34-6.17,2-9,5.37-4.48,10.56-5,17-2.48,5.63,2.19,6.69,7,8.36,11.5,3.19,8.61,4.81,18.07,9.37,25.83,3.6,6.14,5.94,12.66,9.12,18.87,5.84,11.39,11.74,22.77,17,34.43,3.95,8.74,8,17.51,12.45,25.91,2.8,5.3,6,10.72,8.74,16.1,4.67,9.24,9.92,18.18,15.17,27,5.52,9.28,8.92,19.53,15,28.6,3.81,5.69,6.83,12.29,10,18.61,4.26,8.64,9.28,16.9,13.88,25.38,1.16,2.14,2.31,2.07,3.7.4.63-.76,1.6-1.63,1.61-2.47.16-7.39,3.4-14.08,4.65-21.18,2.11-11.91,4.2-23.93,8.11-35.29,4.48-13.06,7.09-26.42,10-39.81,2.61-12.13,5.37-24.27,8.08-36.34,2.17-9.74,5.6-19.09,7.8-28.78,1-4.25.15-9.67,5.49-12.84,6.35-3.78,15.38-4.36,21.82-.74,3,1.71,3.34,3.8,2.68,6.48-.9,3.58-1.22,6.85.35,10.53a9,9,0,0,1-1.76,9.9c-2.72,3.07-6,5.61-8.27,9.13-2.79,4.33-3.6,8.74-1.69,13.51.6,1.51.32,2-1.17,2.36a2.93,2.93,0,0,0-2.31,2.94c.25,5.38-2.56,10.19-2.79,15.4a62.59,62.59,0,0,1-3.49,16.82,20.66,20.66,0,0,0-.72,5.39c-.32,6.46.81,7.37,6.41,4.83a30.34,30.34,0,0,1,18.35-2.05c2.64.47,2.91,1.78,3.28,4,1.31,7.88-2.9,11.77-9.09,15.62-4.46,2.78-7.8,7.57-11.19,11.82s-6.11,9-9.27,13.39c-2.51,3.5-2.59,7.84-5,11.61-5.13,8-11.77,15.61-11.39,26.34.11,3-.94,7.09-2.54,9.14-3.84,4.93-2.88,10.86-4.86,16.1-1.68,4.43-4.53,8.66-5.2,13.14-1.27,8.41-6.71,15.37-7.51,23.72A25.24,25.24,0,0,1,524.5,558.7Z"/><path class="cls-4" d="M303,385.9c-4.38-8.64-9.27-16.65-12.57-25.26-3.08-8-7.66-15.38-9.89-23.75-1.09-4.1,0-9.79,3.05-12.06.39-.3.82-1,1.11-.93,6.77,1.53,14.19-2.17,20.55,2.61,1,.74,2.07,1.45,1.56,2.77-1.1,2.86.36,5.12,1.71,7.25,6.26,9.93,8.08,21.78,13.63,31.88s8.82,21,13.87,31.13q5.16,10.32,10.55,20.56c2.32,4.4,2.54,9.45,5.13,13.67.58,1,.52,2.36,1.2,3.21,4.34,5.49,5.18,7.54,7.29,13.56,1.35,3.85,3.66,7.35,5.43,11.07a54.73,54.73,0,0,1,4.43,11.74c.6,2.72,3.53,3.31,4.9,5.41.75,1.15,2.2,1.76,2.4,3.47,1,8.32,6.16,14.91,9.22,22.36,3.2,7.77,8,15,9.12,23.55a2.5,2.5,0,0,0,.58,1.35c6.93,7.33,6.45,18.23,11.86,25.86,7.74,10.91,9.49,24.29,16.6,35.26a6.3,6.3,0,0,1,1,3.78c0,.82-.27,2.24,0,2.38,4.83,2.23,4.08,8.17,7.63,11.24a5.81,5.81,0,0,1,2.22,3.81c.32,4.32,3.54,6,7,6.52,3,.48,5.18,2.81,8.67,2.49,1.4-.13,4.45,2.64,5.45,5.84,1.57,5,2.44,10.54,6.77,14.37,2,1.72,1.24,4.36,1.87,6.55,1,3.46-1.91,3.55-3.73,4.75-10.5,6.9-21.82,6-31.86-2.51-7.28-6.18-15.66-11.09-21.53-18.88-3.05-4-6.45-7.87-9.11-12.15-5.87-9.42-11.19-19.31-17.54-28.29-8.47-12-12.68-26.12-21.26-38-4-5.51-7.91-12-10-18.27-4.54-13.25-11.81-25-17.6-37.53-6.94-15-15.52-29.21-22.25-44.39-2-4.54-5.3-9-7.12-13.57a157.43,157.43,0,0,0-8.94-19.45c-3.76-6.6-6-14.1-11.84-19.68-1.93-1.85-3.74-5.75-2.06-9.21,1.41-2.89,9.28-6.21,12.13-5.64,1.12.23,1.65,1.44,3.1,1.25A57.74,57.74,0,0,1,303,385.9Z"/><path class="cls-4" d="M218.45,834.37c.43.47.91,1,.23,1.55s-1,0-1.23-.64Z"/><path class="cls-4" d="M1120.52,248.21l-.49-.33c.08,0,.21,0,.25.06a1.25,1.25,0,0,1,.16.35Z"/><path class="cls-4" d="M1809.92,341.33h0l0,0C1810.26,340.77,1810.11,340.69,1809.92,341.33Z"/><path class="cls-4" d="M2321.07,429.51c-3.9,3.95-10,4.23-14.8.83-3.88-2.76-7.28.68-10.88,1.23-2.29.34-3.2,2.19-3.2,4.8,0,3.64-2.84,5-6.42,4.58s-6.89-2.91-10.58-.48c-.62.42-2,.09-2.86-.32-3.95-2-8.47-1.39-11.86-.14-9.11,3.34-18.85,4.4-27.76,8.43-4.3,1.94-9.54,1.89-13.77,3.95-13.45,6.53-28.51,8-42.12,14.46-8.62,4.09-18.16,7.36-28,8.42a3.08,3.08,0,0,0-1.59,1.05c-4.57,4.83-11,6.16-16.73,8.7-6.41,2.87-13.56,4.05-20,6.8-10.54,4.47-21.52,7.73-32,12.44-8.88,4-18.5,6.43-27.18,10.79-13.49,6.78-27.69,11.78-41.45,17.83-6.11,2.68-12.49,4.56-18.52,7.44-7.33,3.51-14.84,6.67-22.36,9.79-9.48,3.94-19.18,7.39-28.54,11.59-9.17,4.11-18.8,7-28.12,10.7-14.61,5.74-29.69,10.82-45.19,14-11.79,2.45-23.6,5.13-35.7,2.08-4.87-1.22-5.27-2.95-2.62-7.37,3.48-5.83,8.86-10.47,11.85-16.28a80,80,0,0,1,14.28-19.24c6-6.14,10.59-13.53,17.1-19.2,1.78-1.56.72-4.89,3.45-5.75,3.18-1,4.51-3.58,6-6.21a21.22,21.22,0,0,1,3.82-5.14c4.93-4.66,8.78-10.32,12.64-15.7a165.5,165.5,0,0,1,14.7-17.8c7.81-8.19,14.78-16.94,21.7-25.79,5-6.41,9.93-12.94,14.51-19.67,5.35-7.86,12.21-14.5,17.33-22.6,8.25-13,16.87-25.82,24.31-39.42,6.76-12.35,10.79-25.06,10.77-39.08,0-1.42.69-3.44-.72-4.17-2.52-1.3-3-3.48-3.15-5.75a2.38,2.38,0,0,0-2-2.45c-4.16-.78-5.65-4.64-8.49-6.93a31.09,31.09,0,0,0-12.7-6.13,72.07,72.07,0,0,0-29.54-.64c-9.21,1.75-18.67,1.87-27.74,4.7-7.12,2.23-14.72,3-21.71,5.52-5.06,1.82-10.57,2.39-15.18,4.47-7.27,3.27-15,4.72-22.33,7.35-13.89,4.95-28.29,8.42-41.79,14.49-1.91.86-3.7,2-6,1.6-1.24,2.18-3.73,1.8-5.65,2.57-6.89,2.76-13.83,5.34-20.67,8.25-18.83,8-38.22,14.72-56.62,23.81-7.6,3.76-14.81,8.2-22.88,11.2-4.33,1.62-16.93,9.68-21.73,9.56a.87.87,0,0,1,.19.31,7.29,7.29,0,0,0-1.31.53c-9.36,5.22-19,9.84-28.59,14.62l-48.91,26.35v-.31c-.79.51-1.57,1-2.34,1.58h0c-3.12,2.17-6.2,4.48-9.64,5.86-5.13,2-9.41,5.21-14,7.95a104.73,104.73,0,0,1-17.56,8.54c-4.8,1.72-11.5.72-12.27,8.4,0,.36-.61.84-1,1-7.45,2.27-13.88,6.47-20.16,10.85-4.33,3-9.36,4.62-13.69,7.68-6.13,4.35-12.24,8.76-19,12.22-5.66,2.9-10,8.17-16.82,9.07-.35,0-.66.62-.93,1-3.2,4.39-7.92,7-12.15,10.1-7,5.14-15.42,7.88-22.21,13.44-2.38,2-4.59,4.36-7.79,5.19-1.27.33-2.69,1.13-3.71-.14-1.23-1.54.67-2.34,1.28-3.32,1.86-3,5.88-3.62,8-6.17,10.47-12.62,22.17-24,34.14-35.15,4.34-4,6.79-9.48,11.21-13.36a298.14,298.14,0,0,0,22.54-22.29c7.29-7.93,12.75-17.42,20.59-24.93,3.53-3.38,8.25-6.19,10.61-10,6.88-11.09,16-20.38,23.56-30.87,8.77-12.1,19.54-22.68,27.14-35.8,8.38-14.47,18.61-28,22.8-44.53,1.39-5.52,4-10.61,4-16.64,0-11.5-8.27-17.92-14.6-25.56-1-1.18-3.08-1.67-4.9-2.16-8.85-2.35-17.8-1.15-26.69-1-5.78.11-11.91.68-16.82,3.6-3.39,2-6.53,3.5-10.33,3.88-1,.1-2.1.29-2.89-.37a1.86,1.86,0,0,1-1.38,2.09c-2.82.45-4.55,2.68-6.9,3.56-9.61,3.6-19.35,6.63-28.27,12.09-5.68,3.48-12.26,5.67-18.4,8.43a399.69,399.69,0,0,0-38.63,19.85c-11.59,6.82-23.78,12.58-35.06,19.89-6,3.9-12.92,6.21-18.4,11.28-3.84,3.55-9.09,5.63-13.84,8.11-1.94,1-4.81.16-5.88,3,1.28.39-12.82,7.16-13.32,8.36-.7,1.69-2.28,2.34-3.73,3.11a204.41,204.41,0,0,0-26,16.29c-12.94,9.6-27.53,16.52-40.49,26-1.94,1.42-4,2.85-6,4.27l-.06-.07-5.49,4h0l-11,8v-.05c-.83.65-1.68,1.27-2.54,1.89l-.7.51c-6.94,4.95-14.48,9-21.06,14.62s-14.23,10.38-21.69,15c-9.65,6-18.89,12.68-28.27,19.06-12,8.12-23.3,17.2-35.17,25.53-3.22,2.26-7,3.33-10,6.33-7.32,7.54-16.15,13.24-24.9,19-7.32,4.79-14.59,9.69-21.79,14.62-10.9,7.47-21.13,15.85-33,21.86a201.66,201.66,0,0,0-22.63,13.07c-16,10.89-33.34,17.45-52.74,18.54-2.87.16-3-1-2-2.75a48.45,48.45,0,0,1,5.22-7.8c10.87-12.73,21.63-25.55,32.89-37.92,6.37-7,10.54-15.77,18.09-21.74,1.75-1.38,4-2.51,5.07-4.31,4.06-6.8,9.33-12.64,14.86-18.11,7.64-7.55,13.84-16.32,21.49-23.87,7.1-7,13.44-14.8,20.1-22.25,1.38-1.54,3.54-2.26,4.72-4h0L1125,448l-.18,0a7.61,7.61,0,0,1,1.08-.81c3.77-2.28,5.83-6.13,8.83-9.06q12.9-12.57,25.81-25.16h0l0,0,1.08-1.05h-.15l17.33-19.59c5.65-5.59,11.38-11.15,16.57-17,8.33-9.39,19.27-16.58,25-28.27a4.06,4.06,0,0,1,1-1.15c6.14-5.46,12.58-10.51,17.86-17,6.39-7.82,13.88-14.76,20.31-22.55,5.47-6.62,11.28-12.91,17-19.33,9.92-11.23,21.78-20.65,30.15-33.4,4.15-6.31,10.44-11.18,15.24-17.12,7.08-8.76,13.56-18,20.81-26.63,8.45-10.11,16.21-20.83,23.8-31.61,2.49-3.55,7.41-5.88,8-9.65,1.1-6.86,6.85-10.53,9.19-16.59,2.63-6.79,7.09-13,8.82-20.28.61-2.57.39-5.38,1.21-7.85,3.78-11.44-5.67-25.41-17.45-26.48a121.11,121.11,0,0,0-23.7.47c-7.59.78-14.33,3.95-21,6.54-6.15,2.39-11.4,7.06-18.23,9.16a63.89,63.89,0,0,0-20.2,10.28c-6,4.7-14.27,4.34-19.5,10.68-3.41,4.12-10.17,4.35-14.11,8.3-3.77,3.79-10,3.16-13.11,8.09a13.9,13.9,0,0,1-5.47,5.39c-6,3.1-10.93,8.53-18.49,8.32-.47,0-1.18.77-1.39,1.33-2,5.5-7.77,7.34-11.36,11.33-1.28,1.42-.41,4.48-2.51,4.19-4.83-.68-7.43,2.52-10.19,5.19a125.92,125.92,0,0,1-18.81,14.82c-4.93,3.23-8.67,7.8-14.12,10.66-4.76,2.49-9.16,6.35-13.24,10.41-5.06,5.05-9.24,11.73-17.23,13.24a4.38,4.38,0,0,0-2.87,2.53c-1.49,5.34-6.16,7.22-10.12,9.91.16,2-1.42,2.36-2.78,2.93-4.72,2-7.23,7.45-12.81,8.08-3.75,9.92-12.88,14.58-20.55,20.54-3.57,2.78-7.82,4.57-10.2,8.8-2.12,3.77-6.68,5.53-8.83,9-4.44,7.13-13.13,10.21-16.52,18.14,0,.11-.33.08-.44.19-7.76,7.17-16.2,13.55-22.85,22a25.89,25.89,0,0,1-2.32,2.51l-.06,0-10.67,9.17h0l-11.6,10a8.51,8.51,0,0,0-2.68,1.38c-1.33,1.35-2.58,2.77-3.81,4.2l0,0h0c-2.17,2.51-4.29,5.07-6.61,7.47-8.47,8.74-17.13,17.33-24.23,27.35-1.61,2.28-3.74,4.66-7.13,5.61-4,1.15-4.63,6.06-7.53,8.77-3.06,2.85-4.32,7.83-8.39,9.33-5.59,2.07-8.86,6.54-12,10.71-5.19,6.81-11.75,12.25-17.61,18.27-8.43,8.65-16.32,17.77-24.65,26.49-8,8.38-14.87,17.92-23.3,25.81C853,514.15,845,524.82,836.42,535c-2.18,2.57-4.19,5-7.65,5.87-1.24.3-3,.74-2.84,2.32.38,4.44-2.61,6.61-5.38,9.19-5.15,4.82-8.68,11.14-13.55,16.07-6.71,6.79-12.34,14.45-18.89,21.36-5.91,6.24-10.62,13.81-16.45,20C763,619,755.09,628.8,746.5,638c-10.43,11.17-19.74,23.49-28.63,36-2.79,3.9-6,7.41-9,11.07-1.6,1.94-1.34,4.53-3.68,6.19-7.35,5.22-12.73,12.74-17.47,19.95C680.6,722,670.68,730.51,664,741.89c-5.14,8.74-13.09,16-19.17,24.48-3.94,5.49-8.6,10.56-12.85,15.88-5.69,7.12-10.77,14.7-16.74,21.61-4.23,4.89-7.35,10.75-11.28,15.78-9.05,11.6-18.34,23-27.17,34.83-4.31,5.75-8.23,11.8-12.42,17.62s-8.84,11.46-12.6,17.77c-4,6.68-8.93,12.9-13.43,19.34-3.38,4.85-5.51,11.47-12.24,13.47-1,.29-1.56.73-.91,1.7,1.24,1.85-.42,2.63-1.22,3.79q-6.69,9.63-13.32,19.29-12,17.38-23.94,34.78c-1.22,1.76-3,3.25-3.85,5.15a104.44,104.44,0,0,1-17.1,26.24c-5.77,6.32-9.66,13.53-13.26,20.84-3.73,7.56-8.68,14.22-12.85,21.42-3,5.13-5.16,10.72-7.51,16.14-2.21,5.1-4.06,10.45-7,15.11-3.15,5-3.21,9.89-2.09,15.23.27,1.3,1.12,1.67,2.1,2.38,4.25,3.08,8.16.26,12.25-.15,3.75-.38,5.27-2,6.48-5.54,1.35-3.93,1.75-8.12,4.25-11.85,3.16-4.72,6.41-9.31,8.25-15.12,3.44-10.9,10.62-20.16,16.09-30.19,2.14-3.91,5.55-6.73,7.3-11.21s3-11.18,12.07-10.6c-5.11-3.18-2.83-5.74-1.21-7.89,7-9.28,12.06-19.9,19.8-28.67a8.08,8.08,0,0,0,2-3.41c1.29-6.61,7-10.36,10.06-16,5.36-9.93,15.07-17,19.47-27.84.35-.86,1.34-1.44,1.95-2.22,2.36-3,4.85-5.87,7-9,5.73-8.4,10.81-17.21,16.61-25.59,5.16-7.47,12.3-13.3,16.75-21.33.87-1.57,1.08-3.33,2.24-4.83,8.31-10.73,16.41-21.61,24.68-32.37,6.2-8.06,11-17.19,18-24.61a114,114,0,0,0,11.92-15.57c7.16-10.87,16.39-20,23.66-30.74,6.06-8.95,13.32-17.07,19.92-25.66,3.3-4.3,8.08-7.62,10.74-11.95,6.57-10.68,15.16-19.7,22.51-29.71,10.25-14,21.1-27.53,32.17-40.9,2.5-3,6.08-4.73,8-8.3,4.45-8.32,12.17-14,17.77-21.51,5.08-6.78,11.89-12.25,17-19,7-9.26,14.94-17.61,22-26.79,4.48-5.86,9.77-11.1,14.58-16.71,8.94-10.41,17.75-20.94,26.71-31.33,4.12-4.78,8.5-9.34,12.71-14,6.13-6.86,11.64-14.41,18.48-20.47,8.23-7.29,14-16.7,22.52-23.64,4-3.27,6.89-7.55,10.2-11.44,7.17-8.42,16.12-15.11,22.84-24,2.71-3.59,4.76-8,9.34-10,3.26-1.46,5.23-4.47,7.35-7.2s3.46-6.12,6.08-7.75c8-5,12.42-13.16,19-19.37,5.15-4.86,9.43-10.64,14.5-15.6l15-14.42c.28.63.67.58,1.16,0a102.15,102.15,0,0,1,7.57-8.39l9.7-9.36,1.68-1.62.53-.52h0c1.56-1.53,3.12-3.06,4.62-4.65,3.11-3.29,6.21-6.75,9.34-10,2.08-2.19,5.82-2,6.6-4.71,1.48-5.17,5.84-8.3,9.17-11.26,9.34-8.35,18.55-16.79,27.57-25.5,7.59-7.34,15.88-14,23.87-20.91,5.71-4.95,13.26-8.52,17.51-14.16,7.92-10.51,19.11-16.77,28.52-25.14,10.57-9.4,22.17-17.94,33.84-26.18,6.27-4.43,11.91-9.76,18.27-14.06,6.1-4.12,12.46-7.83,18-12.73,6.79-6,14.86-10,22.54-14.61,1.18-.7,2.86-2,4.54-.51a1.3,1.3,0,0,1-.3-.32c-1.1-2.12-.15-3.39,1.7-4.44.84-.48,1.41-1.73,2.24-1.89,3.26-.63,5.38-3.15,8.15-4.49,7.3-3.53,14-8.05,21.07-12,9.89-5.55,19.62-11.46,30-16,7.82-3.39,14.91-9.13,24.15-8.69.21,0,.39-.53.66-.64,8.67-3.62,17.37-7,27.09-5.77,3.18.41,4.87,2,4.64,5.24-.39,5.84-2.4,11.21-5,16.4-2.87,5.74-5.36,11.71-8.73,17.14-4.22,6.8-6.14,15.54-14.88,18.86a2.51,2.51,0,0,0-1.3,2c.67,7.43-4.84,12.74-8.72,16.82-5.84,6.12-9.62,13.57-15.48,19.64-9.74,10.1-17.47,22-26.81,32.61-10.48,11.9-21,23.82-31.38,35.82-7.19,8.3-15.29,15.82-22.83,23.83-3.12,3.32-6.62,6.44-9.37,9.89-5,6.24-11.44,10.92-16.29,17.26-3.45,4.51-8.23,8-12.1,12.17-5,5.42-9.71,11-15.68,15.51a25.63,25.63,0,0,0-7.29,7.8c-2.07,3.59-6.57,5.87-10.4,10.75l-1.88,1.83h0l-8.73,8.49-1,1-1.32.74c-.94.53-1.4,1.85-2.29,2.52-4,3-7.18,7-10.58,10.93-.9.85-3.21,3.09-6.5,6.67h0l-.86.94a3.56,3.56,0,0,1,1.11-1.64l-.26.18c-5.17,3.94-3.86,5.69-7,8.42a161.72,161.72,0,0,0-13.34,13.73c-6.19,6.88-13,13.14-19.68,19.61a18.3,18.3,0,0,0-1.08,1.62l-10.6,12c-.89.81-1.69,1.52-2.34,2.18-7.38,7.42-14.26,15.26-21.31,22.95-12.47,13.61-24.69,27.46-37.48,40.77-5.47,5.7-9.21,12.88-15.7,17.66-1.55,1.15-3.43,1.88-4.41,3.89-4.39,9-12.19,15.31-18.49,22.74-8.55,10.07-17.35,19.83-23.78,31.45-1.21,2.19,1,9.81,3.12,11.12,7.11,4.39,14.2,8.37,23,9,4.09.31,8,1,12.16.33,12.35-2.06,24.47-4.28,35.84-10.4,7-3.78,14.4-6.87,21.2-11.15,7.56-4.75,15.15-9.52,23-13.67,9-4.76,17-11.24,25.59-16.6,6.23-3.86,12.52-8.09,18.49-12.61,8.43-6.37,17.7-11.63,25.62-18.73,9.06-8.12,19.71-14.12,29.18-21.73,7.82-6.27,16.65-11.35,24.08-18,6-5.38,13.12-8.81,19.3-13.78,7.21-5.79,15-10.93,22.64-16.11,5.37-3.62,9.55-8.81,16-11.11a16,16,0,0,0,5.34-2.86h0l6.83-5.25h0l19-14.61c12-7.95,24.16-15.75,36.3-23.54s24.49-15.45,36.65-23.31c12.62-8.16,25-16.69,38.54-23.35,9.41-4.64,17-12.2,26.83-16.14,7.54-3,14-8.18,21.17-11.87,7.69-4,14.49-9.52,22.58-12.61,4.27-1.63,7.54-5.32,11.37-6.57,10.29-3.37,19.66-8.62,29.58-12.69,15.12-6.22,30.29-12.37,46.07-16.7,6.49-1.77,13.06-3.74,19.88-3.9,9.11-.22,14,4,13.05,11.85a81.72,81.72,0,0,1-9.47,29c-5.06,9.33-10,18.69-16,27.54-5.8,8.5-12.49,16.56-16.78,26.1a10.14,10.14,0,0,1-2.62,3.55c-10.5,8.64-16.87,20.62-25,31.18-2.78,3.62-6.11,6.89-8.76,10.71-3.15,4.52-8.32,8.06-11.86,12.88-1.71,2.32-13.38,14.73-18,19.77-3.5,3.79-9.59,8.76-11.23,10.9-4.2,5.5-9.38,10.11-14.34,14.77-7.62,7.16-14.4,15.11-22.15,22.18-8.46,7.72-16.52,16-24.93,23.82-10.61,9.88-21.63,19.33-32,29.4-9.82,9.48-20,18.56-30.17,27.59-3.06,2.72-5.73,6.6-10.56,6.71-.36,0-.72-.73-.56.36.61,4-3,5.81-5.22,7.61-8.12,6.58-16.65,12.64-24.53,19.58-6.89,6.06-14.36,11.45-21.55,17.17-5.3,4.22-10.28,8.84-17,11-4.65,1.51-6.77,10.79-3.53,14.15,3.94,4.08,11.83,6.32,16.5,3.63,10.93-6.31,23.28-10.23,32.5-19.45s20.91-15.72,31.51-23.22c12.7-9,24.4-19.43,37.86-27.42,7.76-4.6,13.84-11.59,21.53-16.41,1.2-.75,2.67-1.76,2.64-3.42s1.07-1.69,1.89-1.47c3.1.8,4.75-1.68,7.06-2.74s3.55-3.13,5.92-4.25c7.11-3.38,14.59-6.69,20.5-11.71a177.26,177.26,0,0,1,22.59-16.18c3.37-2.06,7.3-3.76,10-6.22,6.06-5.52,13.55-8.56,20.06-13.23,9.83-7.06,20.77-12.54,30.8-19.34,14.69-10,30.66-17.71,45.62-27.16,8.57-5.41,18.79-7.87,26.44-14.84.39-.35.76-.72,1.13-1.1h0l14.32-7.81,0,0a8.65,8.65,0,0,0,2.43-.81c3.26-1.46,13.87-6.88,16.37-8.18,7-3.65,13.89-7.67,21.07-11,5.78-2.67,10.69-6.07,16.21-8.1l8.62-1.75,8.62-3.87a1.61,1.61,0,0,0,.59-.22,5.18,5.18,0,0,0,1.35-1.07c2.81-2.84,11.32-9.56,14.87-10.28a21.14,21.14,0,0,0,6.78-2.73c6.29-3.72,13.38-5.88,19.63-9.84,3.58-2.26,8.4-2.63,11.9-4.68,9.48-5.57,20-8.66,30-12.64,10.15-4,19.67-9.38,30-13.09,10.57-3.81,20.81-8.39,31.69-11.56,11.28-3.28,22.19-7.9,33.45-11.44,13.17-4.15,26.18-8.94,39.77-11.55,10.28-2,20.31-5.07,30.77-6.33,10-1.22,19.95-2.6,30,.14,5.32,1.46,8.9,5.18,8.76,9.32-.45,13.76-7.39,24.95-13.92,36.41-2.1,3.67-6.65,5.31-7.56,9.29a26.41,26.41,0,0,1-4.91,9.84c-4.2,5.73-7.12,12.22-11.79,17.76-4,4.78-7,10.58-10.81,15.72-2.91,3.93-6.61,7.47-9,11.37-5,8.09-11.38,15-17,22.58-4.32,5.87-9.51,11.12-14.41,16.56s-8.18,12-13,17.26c-8.21,8.89-15.32,18.72-23.66,27.42-11.21,11.72-19.71,25.7-31.53,36.85-.12.12-.33.2-.36.34-2.07,7.81-9.52,12-12.81,19.36-2.43,5.46-3.47,10.62-4.43,16.23a7,7,0,0,0,2,6.65c7.18,6.73,16.15,10.53,25.54,12.42,7.14,1.44,14.56.69,22,0,14.09-1.36,27.69-4.66,41.08-8.63s26.63-9.45,39.85-14.43c9.26-3.49,18.28-7.56,27.5-11.16,4.84-1.9,10.24-2.38,14.59-5.31,6.87-4.63,14.56-7.54,22.17-10.38,7.4-2.77,14.72-5.91,21.89-9,7.33-3.17,15.33-4.87,22.12-9.4,5.21-3.47,12.16-3,17.17-7.22a16.29,16.29,0,0,1,4.79-2.5c8.87-3.4,17.76-6.79,26.4-10.71,13.93-6.32,28.48-11.11,42.4-17.48,8.19-3.74,17.15-5.79,25.32-9.56,6.08-2.82,12.53-4.65,18.51-7.65,11.81-5.94,25.39-6.35,37.33-12.47,8.69-4.46,18.51-7,28-9.48,13.54-3.55,26.12-9.86,39.78-13,10.24-2.38,19.95-6.45,29.71-10.33C2321.28,435.88,2321.78,435.61,2321.07,429.51Zm-18.67,3.4c-.26-1.13,1-.38,1.65-.5.35-.07.79.28,1.28.49A1.72,1.72,0,0,1,2302.4,432.91Z"/><path class="cls-4" d="M1540.09,276.28a3.7,3.7,0,0,0-1-2.1A3.6,3.6,0,0,0,1540.09,276.28Z"/><path class="cls-4" d="M1120.44,248.29l.07,0s0,0,0,0Z"/><path class="cls-4" d="M1140.16,404.77c.66-.45.44-.38,0,0Z"/></g></g></svg>